<?xml version="1.0" encoding="utf-8"?>
<!-- Generator: Adobe Illustrator 22.1.0, SVG Export Plug-In . SVG Version: 6.00 Build 0)  -->
<svg version="1.1" id="Layer_1" xmlns="http://www.w3.org/2000/svg" xmlns:xlink="http://www.w3.org/1999/xlink" x="0px" y="0px"
	 viewBox="0 0 625 625" style="enable-background:new 0 0 625 625;" xml:space="preserve">
<style type="text/css">
	.st0{fill:#B4DFE7;}
	.st1{fill:#F7DF63;}
	.st2{fill:#767E84;}
</style>
<g>
	<path class="st0" d="M228.3,176.7c0-5-4.6-15-7.3-21c-2.7-5.9-1.8-22.8,1.8-33.3c3.6-10.5,9.1-24,16.4-31c5.8-5.5,13.1-9,17.8-8.7
		c3.7,0.3,7.8,2.7,9.1,6.4c2.3-8,8.4-14,14.8-16.7c6.4-2.7,21.5-5.3,31.3-3.4c12.5,2.5,22.8,7.3,31,13.7
		c8.2,6.4,14.6,18.7,18.2,28.3c3.9,10.5,6.8,23.1,6.8,33.7c0,8.3-5.9,18.2-13.7,29.6l0.5-23.3l-9.1-11.4c-2.3-10-3.6-21.9-3.2-27.4
		c-13.8,0.1-23.7-4.6-34.2-14.1c-14.1,1.8-30.1,0.9-37.8-4.1c-6.4,9.1-20.5,20.5-31,24.2c-2.3,8.2-3.2,20.8-3.2,20.8
		C231,146.4,228.8,168.5,228.3,176.7z"/>
	<path class="st0" d="M297.7,294.7c-7.1,5.7-14,12.4-20.1,18.8c4.9,6.1,13.4,14,13.4,14c-8.5,32.8-10.9,80.8-12.2,97.8h41.3
		c-1.8-34.6-10.5-89.4-13.5-99.1c4.8-5.4,8-8.4,12.3-13.9C313.8,306,305.7,298.7,297.7,294.7z"/>
	<path class="st0" d="M462.1,603.1c0,5.2-4,9.5-9,9.5h-311c-4.9,0-9-4.3-9-9.5v-13.2h328.7L462.1,603.1z"/>
	<g>
		<path class="st1" d="M167.4,6.3c7.4,10.3,11.6,16.1,14,19.9c2.4,3.8,3.2,9.4,0.2,13.8c-3.1,4.5-9.8,13.9-13.6,18.6
			c8.3-6.8,15.7-11.5,19.3-14.1c3.5-2.6,8.1-3.2,11.5-0.9c5.7,3.8,11.7,7.5,22.3,14.7c-7.6-9.8-11.4-16.9-15.1-21.5
			c-1.8-2.2-2.9-6.9-0.8-9.9c2.4-3.5,10.7-14.5,16.7-21.9c-8.4,6.2-20.4,15-23.4,16.2s-5.7,1.3-9.9-1.3
			C182.9,16.5,177.4,13.3,167.4,6.3z"/>
		<path class="st1" d="M111.4,67.9c3.8,5.3,6,8.3,7.2,10.2c1.2,1.9,1.7,4.8,0.1,7.1c-1.6,2.3-5.1,7.2-7,9.6c4.3-3.5,8.1-5.9,9.9-7.3
			c1.8-1.3,4.2-1.6,5.9-0.5c2.9,1.9,6,3.8,11.5,7.6c-3.9-5.1-5.9-8.7-7.8-11.1c-0.9-1.1-1.5-3.5-0.4-5.1c1.2-1.8,5.5-7.5,8.6-11.3
			c-4.3,3.2-10.5,7.7-12.1,8.3c-1.6,0.6-2.9,0.6-5.1-0.6C119.4,73.2,116.6,71.5,111.4,67.9z"/>
		<path class="st1" d="M434.3,82.9c3.8,5.3,6,8.3,7.2,10.2c1.2,1.9,1.7,4.8,0.1,7.1c-1.6,2.3-5.1,7.2-7,9.6c4.3-3.5,8.1-5.9,9.9-7.3
			c1.8-1.3,4.2-1.6,5.9-0.5c2.9,1.9,6,3.8,11.5,7.6c-3.9-5.1-5.9-8.7-7.8-11.1c-0.9-1.1-1.5-3.5-0.4-5.1c1.2-1.8,5.5-7.5,8.6-11.3
			c-4.3,3.2-10.5,7.7-12.1,8.3c-1.6,0.6-2.9,0.6-5.1-0.6C442.2,88.2,439.4,86.5,434.3,82.9z"/>
	</g>
	<g>
		<g>
			<path class="st2" d="M230.8,162.7c-1.4,0-2.5-1.1-2.5-2.5c0-8,2.3-16.8,5.6-21.3l3.1-21c0.1-0.8,0.6-1.4,1.2-1.8
				c1-0.5,2.1-1.1,3.3-1.8c6.3-3.4,17-9,18.1-14c0.3-1.3,1.6-2.2,3-1.9c1.3,0.3,2.2,1.6,1.9,3c-1.6,7.2-12.6,13-20.6,17.3
				c-0.8,0.4-1.5,0.8-2.2,1.2l-3,20.5c-0.1,0.4-0.2,0.8-0.5,1.2c-2.8,3.5-4.9,11.6-4.9,18.8C233.3,161.6,232.2,162.7,230.8,162.7z"
				/>
			<path class="st2" d="M297.3,101.1c-9.8,0-20-1.6-24.8-4.4c-1.2-0.7-1.6-2.2-0.8-3.4c0.7-1.2,2.2-1.5,3.4-0.8
				c7,4.2,30.4,5,39.2,1.4c1.3-0.5,2.7,0.1,3.2,1.3c0.5,1.3-0.1,2.7-1.3,3.2C311.7,100.3,304.6,101.1,297.3,101.1z"/>
			<path class="st2" d="M340.6,115c-10,0-24-5.9-31.6-11.4c-1.1-0.8-1.3-2.4-0.5-3.5c0.8-1.1,2.3-1.4,3.5-0.5
				c8,5.8,25.4,12.5,32.9,9.8c1.3-0.5,2.7,0.2,3.2,1.5c0.5,1.3-0.2,2.7-1.5,3.2C344.8,114.7,342.8,115,340.6,115z"/>
			<path class="st2" d="M304.9,157.6c-0.8,0-1.6-0.4-2.1-1.2c-0.7-1.2-0.3-2.7,0.8-3.4c8-4.9,26.8-8,34-2.4c1.1,0.8,1.3,2.4,0.4,3.5
				c-0.8,1.1-2.4,1.3-3.5,0.4c-4.8-3.8-21.3-1.6-28.3,2.7C305.8,157.5,305.3,157.6,304.9,157.6z"/>
			<path class="st2" d="M276.7,157.6c-0.7,0-1.3-0.3-1.8-0.8c-3.4-3.7-16.5-6.4-23.4-2.5c-1.2,0.7-2.7,0.2-3.4-1
				c-0.7-1.2-0.2-2.7,1-3.4c8.7-4.8,24.5-2,29.5,3.5c0.9,1,0.8,2.6-0.2,3.5C277.9,157.4,277.3,157.6,276.7,157.6z"/>
			<path class="st2" d="M298.7,193.2c-1.1,0-2.1-0.7-2.4-1.8c-2.2-7.5-2.4-17.2-0.4-24.2c0.4-1.3,1.7-2.1,3.1-1.7
				c1.3,0.4,2.1,1.7,1.7,3.1c-1.7,6.1-1.5,14.9,0.4,21.5c0.4,1.3-0.4,2.7-1.7,3.1C299.1,193.1,298.9,193.2,298.7,193.2z"/>
			<path class="st2" d="M261,72.9c-6.8-4.2-17,0.2-29.6,12.8c-11,11-17.2,37.4-17.9,48.5c-0.8,11.7,3.6,23.8,6.6,28.8
				c0.2,0.4,0.5,0.9,0.7,1.4c-1.2,0-2.2,0.8-2.4,2c-0.9,5.5,1.7,21.7,3.3,27.7c1.9,7.1,6,11.9,10.6,12.5c0.1,0,0.2,0,0.3,0
				c0.1,0,0.1,0,0.2,0c0.4,1.2,0.7,2.4,1.1,3.6c0.6,2,1.3,4.1,1.8,6c2.5,8.4,9.3,17.5,12.2,21.1c3.4,4.3,3.7,12.3,3.7,20.2
				c0,1.4,1.1,2.5,2.5,2.5s2.5-1.1,2.5-2.5c0-9.1-0.4-17.7-4.8-23.3c-2.7-3.3-9.1-11.9-11.3-19.4c-0.6-2-1.2-4-1.9-6.1
				c-1.7-5.3-3.4-10.9-4-14.7c-0.2-1.3-1.5-2.3-2.8-2.1c-1.3,0.2-2.3,1.5-2.1,2.8c0.3,1.8,0.8,4,1.4,6.2c-1.7-1.2-3.5-3.9-4.7-8.1
				c-1.5-5.6-3.1-16.7-3.3-22.7c1.1,3.3,2,6.6,2,8c0,1.4,1.1,2.5,2.5,2.5s2.5-1.1,2.5-2.5c0-3.9-3.4-13.7-5.8-17.7
				c-2.2-3.7-6.6-15-5.9-25.9c0.7-11.1,6.9-35.7,16.5-45.3c10.3-10.3,19.1-14.9,23.5-12.2c1.2,0.7,2.7,0.4,3.4-0.8
				C262.5,75.2,262.2,73.7,261,72.9z"/>
			<path class="st2" d="M353.4,178.3C353.4,178.3,353.4,178.3,353.4,178.3c1.4,0,2.5-1.1,2.5-2.4l0.8-25c0-0.6-0.2-1.2-0.6-1.7
				l-8.2-9.7c-1.1-5.4-3.5-18-3.5-21.5c0-1.4-1.1-2.5-2.5-2.5c-1.4,0-2.5,1.1-2.5,2.5c0,4.8,3.4,21.3,3.8,23.2
				c0.1,0.4,0.3,0.8,0.5,1.1l8,9.4l-0.8,24.1C351,177.1,352,178.2,353.4,178.3z"/>
			<path class="st2" d="M296.5,267.3c-2.7,0-5.5-0.2-9-0.5c-8.9-0.9-17.7-6-25.5-14.9c-0.9-1-0.8-2.6,0.2-3.5c1-0.9,2.6-0.8,3.5,0.2
				c4.9,5.5,12.7,12.3,22.3,13.3c8.8,0.9,13.3,0.5,18.6-0.5c7.3-1.4,14.9-7.7,18.1-11.8c0.8-1.1,2.4-1.3,3.5-0.4
				c1.1,0.8,1.3,2.4,0.4,3.5c-3.5,4.5-12,11.9-21.1,13.6C303.7,266.9,300.3,267.3,296.5,267.3z"/>
			<path class="st2" d="M323,218.6c-0.4-1.3-1.8-2-3.1-1.7c-13.5,4.1-36.8,3.4-47.8,0.2c-1.3-0.4-2.7,0.4-3.1,1.7
				c-0.4,1.3,0.4,2.7,1.7,3.1c0.6,0.2,1.4,0.4,2.1,0.5c3.5,9.4,12.6,15.8,22.6,15.8c0.1,0,0.2,0,0.3,0c11.3-0.2,19.5-5.8,23.4-15.9
				c0.8-0.2,1.6-0.4,2.4-0.6C322.7,221.3,323.4,219.9,323,218.6z M295.6,233.3c-0.1,0-0.2,0-0.3,0c-6.8,0-13.2-3.9-16.6-9.8
				c5.1,0.7,11.1,1.2,17.2,1.2c5.8,0,11.7-0.4,17-1.2C309.5,229.8,303.6,233.2,295.6,233.3z"/>
			<path class="st2" d="M270.3,172.2c0,2.8-2.3,5.1-5.1,5.1c-2.8,0-5.1-2.3-5.1-5.1c0-2.8,2.3-5.1,5.1-5.1
				C268,167.1,270.3,169.4,270.3,172.2z"/>
			<path class="st2" d="M325,172.2c0,2.8-2.3,5.1-5.1,5.1s-5.1-2.3-5.1-5.1c0-2.8,2.3-5.1,5.1-5.1S325,169.4,325,172.2z"/>
		</g>
		<g>
			<path class="st2" d="M132.9,320.4c-0.2,0-0.4,0-0.6-0.1c-1.3-0.3-2.2-1.6-1.9-3c1-4.5,5.1-9.7,10.3-10.8c4.6-1,73.7-19.7,83.6-23
				c1.3-0.4,2.7,0.3,3.1,1.6c0.4,1.3-0.3,2.7-1.6,3.1c-9.9,3.3-79.5,22.1-84.1,23.1c-3.1,0.7-5.8,4.2-6.5,7.1
				C135.1,319.7,134.1,320.4,132.9,320.4z"/>
			<path class="st2" d="M105.6,565.6c-22.3,0-37.3-14.9-44-28.8c-6.8-14.3-6.4-28.8,1.4-48.6c3.6-9.2,16.6-48.9,28-84
				c11.5-35.2,18.5-56.9,19.8-59.5c0.7-1.5,1.8-4.4,3.1-7.6c5.3-13.6,8-19.5,10.9-20.9c1.2-0.6,2.7-0.1,3.3,1.1
				c0.6,1.2,0.1,2.7-1.1,3.3c-1.9,1.4-6.3,12.8-8.5,18.3c-1.3,3.3-2.4,6.2-3.2,7.9c-1.1,2.4-10.5,31.1-19.5,58.9
				c-11.5,35.2-24.4,75-28.1,84.3c-7.3,18.4-7.7,31.8-1.6,44.7c6,12.6,19.5,26,39.5,26c1.4,0,2.5,1.1,2.5,2.5S107,565.6,105.6,565.6
				z"/>
			<path class="st2" d="M366,282.4c-0.7,0-1.3-0.3-1.8-0.8c-1.6-1.7-3.4-3.8-5.3-6c-3.2-3.7-6.5-7.5-9.1-10.1c-1-1-1-2.5,0-3.5
				c1-1,2.5-1,3.5,0c2.8,2.8,6.1,6.6,9.4,10.4c1.9,2.1,3.6,4.2,5.2,5.9c0.9,1,0.8,2.6-0.2,3.5C367.2,282.2,366.6,282.4,366,282.4z"
				/>
			<path class="st2" d="M463.8,312.7c-1,0-2-0.6-2.3-1.7c-1.1-3.1-3.6-5-7.8-5.6c-2.3-0.4-12.9-3.3-30-8
				c-19.3-5.3-43.4-12-49.2-12.9c-1.3-0.2-2.3-1.5-2-2.8c0.2-1.3,1.5-2.2,2.8-2c6,1,29.2,7.4,49.7,13c14.1,3.9,27.3,7.5,29.5,7.9
				c7.5,1.2,10.5,5.5,11.7,8.9c0.4,1.3-0.2,2.7-1.5,3.1C464.4,312.7,464.1,312.7,463.8,312.7z"/>
			<path class="st2" d="M479.2,565.1c-1.1,0-2.2-0.8-2.4-1.9c-0.3-1.3,0.6-2.7,1.9-2.9c13.9-3,21.9-5.1,37.3-14.7
				c14.5-9.1,19-27.3,15.8-40.6c-2.3-9.9-6.1-19-9.7-27.7c-2.1-5-4.2-10.2-6.1-15.5c-5.5-15.6-31.7-100.7-35.7-119.8
				c-4.8-23.3-12-26.1-12.8-26.3c-1.3-0.4-2.1-1.8-1.7-3.1c0.4-1.3,1.8-2.1,3.1-1.7c6.8,2,12.8,12.9,16.3,30
				c3.9,19,30,103.6,35.5,119.2c1.8,5.2,3.9,10.3,6,15.2c3.7,8.9,7.6,18.1,10,28.5c3.4,14.6-0.8,35.1-18,45.9
				c-16.1,10.1-24.4,12.2-38.9,15.3C479.6,565.1,479.4,565.1,479.2,565.1z"/>
		</g>
		<path class="st2" d="M469.7,423.4H325c0.4-0.4,0.7-1,0.8-1.6c2.3-31.9,14.7-99.7,19-120.8c2.5-12.4,2.5-28.4,0-40.7
			c-0.3-1.3-1.6-2.2-2.9-1.9c-0.2,0-0.3,0.1-0.5,0.2c0.1-2.4,0.1-4.9,0.1-7.4c0-3.5-0.1-6.7,0.2-9.5c0.4-4.3,1.7-8.5,3.6-11.6
			c2.5-4.1,6.6-13.1,7.4-21.3c0.1-1.1,0.2-2.1,0.3-3c0.1,0,0.1,0,0.2,0c0.2,0,0.3,0,0.5,0c6-1.2,8.2-8.5,9.4-12.4
			c1.4-4.7,3.8-18.9,3.3-27.3c-0.1-1-0.8-1.9-1.7-2.2c0.5-0.8,0.9-1.6,1.4-2.4c2.4-4,4.8-8.1,6.2-12.1c2.1-6.3,0.9-14.8-0.6-24.6
			c-0.3-2-0.6-4.1-0.9-6.2c-1.7-12.8-10.8-31.1-17.8-38.8c-7.6-8.4-28.4-21.1-46.3-21.9c-17.2-0.8-31.6,3.8-39.5,12.5
			c-0.9,1-0.8,2.6,0.2,3.5c1,0.9,2.6,0.8,3.5-0.2c6.9-7.6,19.8-11.6,35.5-10.9c17,0.8,36.6,13.4,42.8,20.3
			c6.4,7.1,15,24.4,16.6,36.2c0.3,2.1,0.6,4.2,0.9,6.2c1.3,8.8,2.5,17.1,0.8,22.3c-1.2,3.5-3.5,7.4-5.7,11.1c-2.1,3.5-4,6.8-5.2,9.9
			c-0.5,1.3,0.2,2.7,1.4,3.2c0.3,0.1,0.6,0.2,0.9,0.2c1,0,1.9-0.6,2.3-1.6c0-0.1,0.1-0.2,0.1-0.3c-0.3,7.9-2.2,18.5-3.1,21.7
			c-0.7,2.4-2.1,7-4.5,8.5c0.1-0.4,0.1-0.7,0.2-1.1c0.6-3.5,1.2-7,1.5-11.6c0.1-1.4-0.9-2.5-2.3-2.6c-1.3-0.1-2.5,0.9-2.6,2.3
			c-0.3,4.3-0.9,7.6-1.5,11.1c-0.5,3-1,6.1-1.4,9.8c-0.7,7.3-4.4,15.6-6.6,19.1c-2.4,3.8-3.9,8.7-4.4,13.8c-0.2,3-0.2,6.5-0.2,9.9
			c0,2.4,0,4.8,0,7c-8,8.8-23,23.6-38,30.6c-14-6.7-39.6-22.9-42-32c-0.3-1.3-1.7-2.1-3-1.8c-1.3,0.3-2.1,1.7-1.8,3
			c0,0.1,0.1,0.2,0.1,0.2c-0.1,0-0.2-0.1-0.2-0.1c-1.3-0.4-2.7,0.3-3.1,1.6c-0.4,1.3-0.7,2.7-0.8,4.2c-0.1-0.1-0.2-0.3-0.3-0.4
			c-1-0.9-2.6-0.8-3.5,0.3c-5.6,6.6-11,13.3-13.2,18.1c-0.6,1.2,0,2.7,1.2,3.3c0.3,0.2,0.7,0.2,1,0.2c0.9,0,1.8-0.5,2.3-1.4
			c1.9-4.2,7.2-10.7,12.2-16.7c-0.1,7.5,1.8,16.7,3.6,25.8l0.8,4.2c4.5,23,18,95.3,20.2,124.1c0.1,0.9,0.6,1.6,1.4,2h-148
			c-6.9,0-12.4,5.6-12.4,12.6l9.7,172.3c0,6.9,5.3,12.4,11.9,12.4h326.1c6.6,0,11.9-5.6,11.9-12.3l9.6-172.6
			C482.1,429,476.5,423.4,469.7,423.4z M321.9,409.6c-2.2-23.7-7.6-65.6-12.4-82.8l0.7-0.7c3-3.3,6.3-6.9,8.5-10.2
			c1,1.4,1.8,2.7,2.4,3.8c0.4,0.7,1.1,1.2,1.8,1.3c0.1,0,0.2,0,0.3,0c0.7,0,1.3-0.3,1.8-0.8c4.8-5.1,10.1-10.9,14.2-17
			C335.7,321.5,325.7,375,321.9,409.6z M340,261.7c2,10,2.2,23,0.7,33.8c-1.2-0.5-2.5-0.1-3.1,1.1c-3.4,6.3-8.8,12.5-13.9,18
			c-4.9-7.2-15.1-17.6-22.1-21.8C317,285.2,331.9,270.5,340,261.7z M298.7,296.8c4.5,2.5,11.4,9,16.6,15c-1.7,3.2-5.5,7.3-8.8,11
			l-1.6,1.8c-0.6,0.6-0.8,1.6-0.5,2.4c5.7,18.7,12.6,77.5,13.5,94.7c0,0.7,0.4,1.4,0.9,1.8h-37.6c0.2-0.4,0.4-0.8,0.4-1.3
			c-0.3-19.4,5.3-74.6,11.4-94.8c0.3-0.8,0.1-1.7-0.5-2.4c-1.1-1.3-2.6-2.8-4.2-4.4c-2.6-2.6-5.7-5.8-7.1-7.8
			C287,306.4,293.4,300.1,298.7,296.8z M257,298.5c-0.3-1.3-0.4-2.1-0.4-2.1l-0.8-4.2c-2.3-11.2-4.8-24-2.7-30.7
			c6.6,11.6,31.3,26.1,42.5,31.6c-7.7,5-16.9,15.1-23.9,23.2c-0.2-0.2-0.4-0.5-0.6-0.7c-4.2-4.9-9-10.5-11.9-15.8
			C258.7,298.9,257.9,298.5,257,298.5z M258.9,308.4c2.6,3.6,5.6,7.1,8.4,10.3c0.9,1,1.7,2,2.5,2.9c0.5,0.6,1.2,0.9,1.9,0.9
			c0,0,0,0,0,0c0.7,0,1.4-0.3,1.9-0.9c1.4-1.6,2.8-3.3,4.4-5.1c1.7,2.2,4.3,4.9,6.9,7.5c1.1,1.1,2.2,2.2,3.1,3.2
			c-6.1,21.5-10.9,71.4-11.2,91.6C274.2,391.1,263.6,333.4,258.9,308.4z M276.7,422.1C276.7,422.1,276.7,422.2,276.7,422.1
			c0,0.5,0.2,0.9,0.4,1.2h-1.6C276.1,423.1,276.5,422.7,276.7,422.1z M467.6,608.3c0,4.1-3.1,7.5-7,7.5H134.5c-3.8,0-7-3.4-7-7.6
			l-9.7-172.3c0-4.1,3.4-7.5,7.5-7.5h344.3c4.1,0,7.5,3.4,7.5,7.3L467.6,608.3z"/>
		<path class="st2" d="M257.3,422.9c-1,0-2-0.7-2.3-1.7c-2.5-7.5-9.1-19.7-16.7-33.8c-9.8-18.1-20.8-38.6-27-56
			c-0.4-1.2,0.2-2.6,1.4-3.1l15.2-6.4l-11.6-6.5c-1.1-0.6-1.6-2.1-1-3.2l9.6-19.9c0.6-1.2,2.1-1.7,3.3-1.1c1.2,0.6,1.7,2.1,1.1,3.3
			l-8.6,17.8l14,7.9c0.8,0.5,1.3,1.4,1.3,2.3c-0.1,0.9-0.6,1.8-1.5,2.1l-17.7,7.4c6.2,16.6,16.6,35.9,25.9,53.1
			c7.7,14.3,14.4,26.7,17,34.6c0.4,1.3-0.3,2.7-1.6,3.1C257.8,422.9,257.6,422.9,257.3,422.9z"/>
		<path class="st2" d="M344.2,423.2c-0.4,0-0.7-0.1-1.1-0.2c-1.2-0.6-1.8-2.1-1.2-3.3c2.9-6.1,7.2-13.8,12.1-22.7
			c10-18,22.3-40.3,30-61.5L366.3,323c-0.8-0.5-1.2-1.4-1-2.4c0.1-0.9,0.8-1.7,1.6-2l17.6-6.1l-14.4-23c-0.7-1.2-0.4-2.7,0.8-3.4
			c1.2-0.7,2.7-0.4,3.4,0.8l16.1,25.7c0.4,0.6,0.5,1.4,0.2,2.1c-0.3,0.7-0.8,1.3-1.5,1.5l-16,5.5l15.3,10.7c0.9,0.6,1.3,1.8,0.9,2.8
			c-7.7,22.2-20.6,45.4-30.9,64c-4.9,8.9-9.2,16.5-12,22.5C346,422.6,345.1,423.2,344.2,423.2z"/>
		<path class="st2" d="M161.3,419.1c-1.1,0-2.1-0.7-2.4-1.8c-0.5-1.8-1-3.9-1.7-6.4c-4.7-17.9-13.5-51.2-22.7-69.6
			c-0.6-1.2-0.1-2.7,1.1-3.3c1.2-0.6,2.7-0.1,3.3,1.1c9.5,18.9,18.3,52.5,23.1,70.5c0.6,2.4,1.2,4.6,1.7,6.4c0.4,1.3-0.4,2.7-1.7,3
			C161.7,419.1,161.5,419.1,161.3,419.1z"/>
		<path class="st2" d="M441.1,413.3c-1.4,0-2.5-1.1-2.5-2.5c0-13.4,8-65.4,17.5-85.2c0.6-1.2,2.1-1.7,3.3-1.2
			c1.2,0.6,1.7,2.1,1.2,3.3c-8.9,18.5-17,69.7-17,83C443.5,412.2,442.4,413.3,441.1,413.3z"/>
		<path class="st2" d="M54.5,538.8H7.2c-1.4,0-2.5-1.1-2.5-2.5s1.1-2.5,2.5-2.5h47.3c1.4,0,2.5,1.1,2.5,2.5S55.9,538.8,54.5,538.8z"
			/>
		<path class="st2" d="M622.5,538.8h-81c-1.4,0-2.5-1.1-2.5-2.5s1.1-2.5,2.5-2.5h81c1.4,0,2.5,1.1,2.5,2.5S623.9,538.8,622.5,538.8z
			"/>
	</g>
</g>
</svg>
